Coordinates
version=1
nRows=143
nColumns=7
inDegrees=yes

"Units are S.I. units (second, meters, Newtons, ...)"
"If the header above contains a line with 'inDegrees', this indicates whether rotational values are in degrees (yes) or radians (no)."

endheader
time	hip_flexion_r	hip_adduction_r	hip_rotation_r	knee_angle_r	ankle_angle_r	subtalar_angle_r
12.65	34.40470672	-3.46939375	-10.96907227	11.28370488	7.24775387	12.33207524
12.655	34.15336569	-3.50044716	-10.83362703	11.90731657	6.94160635	11.71842294
12.66	33.89696089	-3.51916709	-10.37551342	12.24643515	6.50214067	10.47677571
12.665	33.59262298	-3.54945064	-10.37116408	12.75075131	6.21507509	9.86083717
12.67	33.29041779	-3.49755462	-10.13843273	12.84982668	5.500903	8.44470664
12.675	32.95341279	-3.42506312	-10.17218298	12.99132285	4.61967848	7.39191321
12.68	32.66674499	-3.3621839	-10.36891493	13.20776248	3.60432172	6.54505663
12.685	32.50177146	-3.28357229	-10.34178079	13.64228783	2.9188559	6.46545169
12.69	32.47131911	-3.30993868	-10.65871771	14.18259215	2.13487507	5.53154251
12.695	32.35350248	-3.15827166	-10.65923019	14.81129872	1.83644652	5.29936457
12.7	32.53056008	-3.17577059	-10.74401915	15.5216292	1.61785897	5.02005272
12.705	32.30356044	-2.986297	-10.7230591	16.22867586	1.51690722	4.80343497
12.71	32.54893504	-3.03505365	-10.87894959	17.01614219	1.3132984	4.47304339
12.715	32.54978147	-2.97807698	-10.94478013	17.77807159	1.07937942	4.07130086
12.72	32.44029162	-2.85004502	-10.84905809	18.58634732	0.89801348	3.68811316
12.725	32.71692389	-2.85504803	-10.74226716	19.20343797	0.54716572	3.18514205
12.73	32.31566554	-2.58962938	-10.51864888	19.84005255	0.63428624	2.89566509
12.735	32.52591344	-2.33281061	-10.46652079	20.29854548	0.61075714	2.33282573
12.74	32.42203226	-2.08882962	-10.39654088	20.87557847	0.77671679	1.88337394
12.745	32.26885335	-1.81918186	-10.31187189	21.33478809	0.98782173	1.37896232
12.75	31.87572722	-1.50913526	-10.21635621	21.79115249	1.29500629	0.95805401
12.755	31.59189588	-1.15109737	-10.29128023	22.03986065	1.45043804	0.43848658
12.76	31.2096834	-0.84467457	-10.23621641	22.24750475	1.60070566	0.10273709
12.765	30.99014154	-0.60111832	-10.25381505	22.34028802	1.72104681	-0.33703263
12.77	30.55543082	-0.27396347	-10.30760855	22.46096943	1.88635697	-0.56097474
12.775	30.13417836	0.07080051	-10.40325299	22.51787601	2.035162	-0.77247271
12.78	29.82854576	0.37722415	-10.50774532	22.53615266	2.22981266	-0.96681311
12.785	29.47159669	0.53064574	-10.64648893	22.55066395	2.51008671	-1.05804545
12.79	28.93434997	0.65848978	-10.64241698	22.59828235	2.93287293	-1.12407789
12.795	28.74368576	0.84388387	-11.00278963	22.50007154	3.04771894	-1.09461128
12.8	28.42816789	0.96518196	-11.12793063	22.43280636	3.28716681	-1.10916706
12.805	28.00945627	1.0964711	-11.30166712	22.27696744	3.52083958	-1.10343654
12.81	27.63750501	1.19356745	-11.43798891	22.1414864	3.75153943	-1.05796096
12.815	27.10725391	1.08066157	-11.30014703	22.00841735	4.00066514	-0.99419247
12.82	26.99929707	1.20280724	-11.76489218	21.92864581	4.29753693	-0.82504492
12.825	26.62341381	1.31275338	-11.84018076	21.76949179	4.47944068	-0.7242864
12.83	26.06185415	1.2070103	-11.81388129	21.62525343	4.58708832	-0.65725209
12.835	25.79269975	1.45546042	-12.09555698	21.39150171	4.91262943	-0.39265074
12.84	25.38397849	1.48969948	-12.09856138	21.18316754	5.15071489	-0.21081624
12.845	24.87017454	1.42266409	-12.11862713	21.06788551	5.24843361	-0.14987103
12.85	24.60431341	1.64423425	-12.40477781	20.89661796	5.60928654	0.28296831
12.855	24.11221218	1.55870304	-12.43706492	20.70121184	5.75632154	0.42182969
12.86	23.72204241	1.81513298	-12.57004683	20.3730129	6.00185842	1.02624692
12.865	23.2404525	1.82739683	-12.59204619	20.17982877	6.21503416	1.07559224
12.87	22.78027985	1.88214951	-12.67638802	19.94981351	6.38175819	1.23893628
12.875	22.23051866	2.05714659	-12.86009416	19.61842744	6.54270158	1.81962668
12.88	21.770877	2.06154599	-12.87639842	19.37655972	6.70277323	1.95115063
12.885	21.32363457	2.1057146	-12.99562284	19.15203508	6.8494297	2.06926076
12.89	20.70617075	2.08419571	-12.90429827	18.64953966	6.91011707	2.60945209
12.895	20.19814253	2.1722553	-12.98964438	18.43277639	7.08138534	2.72704779
12.9	19.65011961	2.20627981	-12.97537683	18.05585494	7.17449774	3.03846456
12.905	19.03513993	2.13988617	-12.94236992	17.65420077	7.22476792	3.4533003
12.91	18.26322559	2.00466624	-12.87395224	17.29085731	7.30583889	3.83386376
12.915	17.85548995	2.13853884	-13.03785186	17.15928472	7.51511552	3.82132098
12.92	17.29893946	1.88749561	-12.94022308	16.64877296	7.51998923	4.2240792
12.925	16.89722022	2.06272769	-13.03715363	16.58899768	7.68824528	4.2742871
12.93	16.21202158	1.75004739	-12.81346333	16.11744301	7.69075545	4.8086374
12.935	15.48341644	1.50666941	-12.72091059	15.90509741	7.86647133	5.14528144
12.94	15.04527695	1.39279601	-12.7057235	15.5699486	7.9277297	5.42531322
12.945	14.55138294	1.3275381	-12.71085194	15.34518017	8.03325095	5.66987533
12.95	13.9931978	1.18615998	-12.60596245	15.12880763	8.18030937	6.00407296
12.955	13.55571397	1.10041757	-12.63350998	14.98410466	8.29476725	6.14583487
12.96	12.98605614	0.92968075	-12.53580338	14.80305351	8.48893978	6.43562074
12.965	12.52208907	0.85325233	-12.44058257	14.60171007	8.58953695	6.83138715
12.97	12.08394947	0.77250106	-12.39691012	14.43421751	8.67845182	7.03118951
12.975	11.49012941	0.62649256	-12.29399445	14.31773767	8.86261188	7.33233691
12.98	10.9967183	0.47573121	-12.40436659	14.27002247	9.05569137	7.76164959
12.985	10.65680675	0.46828202	-12.27968888	14.10566913	9.25089123	7.90522962
12.99	10.13201919	0.41066593	-12.17329595	13.99397746	9.32208264	8.11890514
12.995	9.80202472	0.48197025	-12.13694647	13.84264176	9.37293564	8.25060013
13	9.2828733	0.44339139	-12.01883083	13.77238728	9.53446302	8.41043945
13.005	8.99992976	0.56535049	-11.99191395	13.62715139	9.61452529	8.552566
13.01	8.48007691	0.53198372	-11.87250496	13.60456069	9.80668499	8.73131337
13.015	8.04895975	0.59995358	-11.84486544	13.535687	9.95127304	8.92612444
13.02	7.81914558	0.81115069	-11.80333658	13.42090365	9.95988696	9.05162138
13.025	7.41148144	0.86846173	-11.71957877	13.35808666	10.10459391	9.17859351
13.03	7.13805348	1.17637386	-11.679946	13.30695868	10.24037255	9.27341275
13.035	6.74466539	1.33914014	-11.6521864	13.2222844	10.33323093	9.37537728
13.04	6.34254711	1.52522894	-11.60567532	13.14350542	10.45219755	9.44703848
13.045	5.79418433	1.74458956	-11.38417043	13.12363643	10.56875604	9.56773892
13.05	5.61888532	2.08287242	-11.37897669	13.08594754	10.63606649	9.62583632
13.055	5.04097222	2.19221251	-11.25468476	13.0052834	10.74285483	9.76898377
13.06	4.59195014	2.37930999	-11.18723035	12.84801924	10.82485275	9.91956302
13.065	4.24221948	2.54536373	-11.3024669	12.88676028	10.9316583	10.25450149
13.07	4.01972122	2.79986323	-11.34547593	12.8574712	11.00385992	10.44123476
13.075	3.4202352	2.69108964	-11.46954793	12.96277171	11.26453356	11.06941154
13.08	3.00101375	2.7247058	-11.60903051	13.00735379	11.42759849	11.49820252
13.085	2.73607307	2.7530224	-11.7194999	13.01401594	11.49011111	11.70472731
13.09	2.13680236	2.58772253	-11.86870078	13.16165717	11.74058886	12.38942178
13.095	1.75437107	2.4889518	-12.05101034	13.29121858	11.89681412	12.88922207
13.1	1.41387896	2.36498312	-12.13745379	13.42089257	12.0125331	13.20944016
13.105	0.9914581	2.19879948	-12.37392635	13.66187129	12.21293288	13.84534578
13.11	0.72305033	2.28045947	-12.40767763	13.7309175	12.21479527	13.8386108
13.115	0.35006581	1.82288929	-12.62718804	14.14934045	12.51232417	14.50486523
13.12	0.13713204	1.88169278	-12.66260265	14.29173345	12.47055303	14.56404639
13.125	-0.31200618	1.55274634	-12.92517165	14.70383785	12.72337312	15.18926358
13.13	-0.51887984	1.52484167	-12.8830123	14.89806498	12.67956429	15.13832415
13.135	-0.79319552	1.45550702	-12.85218865	15.20017376	12.70536799	15.06008519
13.14	-1.0315105	1.39546732	-12.7106401	15.33642474	12.64259852	15.09016549
13.145	-1.40366713	1.28044621	-12.67884192	15.8235581	12.71327956	14.98927297
13.15	-1.69001363	1.20014726	-12.57035377	16.16389994	12.67486181	14.91152186
13.155	-1.97984298	1.13999231	-12.43569934	16.51558318	12.64789568	14.78977756
13.16	-2.25595582	1.13009334	-12.27094322	16.88202741	12.56633877	14.62211073
13.165	-2.47200552	0.98023014	-12.01705533	17.09592636	12.41655442	14.60418252
13.17	-2.73940156	1.10443673	-11.95871182	17.70347297	12.37841857	14.12815509
13.175	-2.91632193	1.01797072	-11.79777757	18.05621867	12.182628	13.98458714
13.18	-2.82805765	1.11925387	-11.69822881	18.6804941	12.05103722	13.42999182
13.185	-3.01738003	1.00438409	-11.51894071	19.25175744	11.85240083	13.16636386
13.19	-3.17480078	0.85471338	-11.27428404	19.58649322	11.62501481	13.1028956
13.195	-2.96597678	0.55462604	-11.31894954	20.69671876	11.6121354	12.55488243
13.2	-3.04043774	0.4202161	-11.21802757	21.37226276	11.2182519	12.29996591
13.205	-2.83804434	0.07066248	-11.15338579	22.3244515	11.02141588	11.69349238
13.21	-2.38676852	-0.23956257	-11.05544398	23.421554	10.72160331	11.47201001
13.215	-2.09199139	-0.50442995	-10.87774034	24.49400714	10.30878001	10.82905411
13.22	-1.6433734	-0.72131637	-10.69311877	25.66466198	9.81338113	10.15562433
13.225	-1.45249486	-0.91534296	-10.58302373	26.80775408	9.15567224	9.54659546
13.23	-0.44711768	-1.23015671	-10.23049128	28.3274693	8.58730519	8.62154848
13.235	0.2398722	-1.57736524	-10.03191442	29.85898686	7.87477708	7.79801787
13.24	0.89342068	-1.96609213	-9.66898075	31.46318165	7.0793599	6.80466511
13.245	1.61221731	-2.41979231	-9.29229068	33.2135146	6.16765605	5.77061047
13.25	2.73507089	-2.93133511	-8.84333196	35.15150167	5.15821591	4.72708882
13.255	3.68411997	-3.49660109	-8.42132444	37.14051512	4.01447812	3.77013254
13.26	4.69767823	-4.0706293	-7.95853787	39.19016337	2.69561166	2.65497305
13.265	5.49899155	-4.68626058	-7.56973815	41.30013769	1.31864314	1.5077582
13.27	6.86174326	-5.19428162	-6.89325673	43.50197541	-0.26614019	0.15987309
13.275	7.90546505	-5.68163689	-6.31440075	45.6386594	-1.9036178	-1.07126435
13.28	9.1348864	-6.11313492	-5.6445346	47.8001098	-3.75657504	-2.43681245
13.285	10.02738658	-6.53545543	-5.15238582	49.86577947	-5.65523437	-3.50524109
13.29	11.7344056	-6.78757337	-4.18106818	51.99817084	-7.86806938	-5.11055241
13.295	12.99219887	-7.06587796	-3.44058265	54.04106791	-10.00333404	-6.51788943
13.3	14.28798344	-7.3021795	-2.70023478	55.97597325	-12.2793761	-7.88172437
13.305	15.51163517	-7.53630522	-1.92776663	57.79755757	-14.49876737	-9.16842002
13.31	16.61662506	-7.72010431	-1.20900764	59.4366606	-16.66371737	-10.28137125
13.315	17.33218928	-7.7640531	-0.70736522	60.8721208	-18.154971	-10.65839302
13.32	18.6536443	-7.98353927	0.26105383	62.54761253	-18.65310104	-12.12712424
13.325	19.80077168	-7.91220471	1.01968735	64.1214933	-18.28035574	-12.7772118
13.33	20.86010128	-7.84698064	1.66567862	65.58039552	-17.61631488	-13.30464213
13.335	21.57605407	-7.60650055	2.02669115	66.77550317	-16.8911851	-13.97801391
13.34	22.52633232	-7.58419125	2.47907709	68.01365627	-15.92005193	-14.66738227
13.345	23.88974402	-7.70879259	3.20188963	69.28125139	-14.9148658	-14.96107141
13.35	24.60131372	-7.42356854	3.38581136	70.1384037	-14.28613073	-15.50602891
13.355	25.48548263	-7.35110885	3.61218385	70.95826138	-13.5931208	-16.09215648
13.36	26.6725642	-7.36057408	4.00945236	71.90346374	-12.80172113	-16.42900404
